<svg id="Capa_1" enable-background="new 0 0 512 512" height="512" viewBox="0 0 512 512" width="512" xmlns="http://www.w3.org/2000/svg"><g><path d="m426.767 70.733c-45.614-45.613-106.26-70.733-170.767-70.733s-125.153 25.12-170.767 70.733-70.733 106.26-70.733 170.767c0 4.143 3.358 7.5 7.5 7.5s7.5-3.357 7.5-7.5c0-124.893 101.607-226.5 226.5-226.5s226.5 101.607 226.5 226.5v233c0 12.406-10.093 22.5-22.5 22.5h-74v-27.5c0-8.896-6.678-16.248-15.282-17.344l-12.873-66.508c46.813-33.122 74.655-86.709 74.655-144.148 0-97.322-79.178-176.5-176.5-176.5s-176.5 79.178-176.5 176.5c0 57.45 27.839 111.026 74.655 144.149l-12.872 66.507c-8.604 1.096-15.283 8.447-15.283 17.344v27.5h-74c-12.407 0-22.5-10.094-22.5-22.5v-198c0-4.143-3.358-7.5-7.5-7.5s-7.5 3.357-7.5 7.5v198c0 20.678 16.822 37.5 37.5 37.5h408c20.678 0 37.5-16.822 37.5-37.5v-233c0-64.507-25.12-125.153-70.733-170.767zm-302.267 170.767c0-72.51 58.991-131.5 131.5-131.5s131.5 58.99 131.5 131.5c0 35.616-14.225 69.182-39.391 93.845l-4.872-25.172c5.774-2.863 9.763-8.803 9.763-15.673v-10c0-9.649-7.851-17.5-17.5-17.5h-20.29c.833-2.347 1.29-4.871 1.29-7.5 0-12.406-10.093-22.5-22.5-22.5h-76c-12.407 0-22.5 10.094-22.5 22.5 0 2.629.458 5.153 1.29 7.5h-20.29c-9.649 0-17.5 7.851-17.5 17.5v10c0 6.87 3.989 12.811 9.763 15.673l-4.872 25.175c-25.162-24.666-39.391-58.261-39.391-93.848zm52 55.5c-1.378 0-2.5-1.121-2.5-2.5v-10c0-1.379 1.122-2.5 2.5-2.5h159c1.378 0 2.5 1.121 2.5 2.5v10c0 1.379-1.122 2.5-2.5 2.5zm34-37.5c0-4.136 3.364-7.5 7.5-7.5h76c4.136 0 7.5 3.364 7.5 7.5s-3.364 7.5-7.5 7.5h-76c-4.136 0-7.5-3.364-7.5-7.5zm-26.812 52.5h144.625l18.387 95h-181.399zm-89.188-70.5c0-89.052 72.449-161.5 161.5-161.5s161.5 72.448 161.5 161.5c0 50.268-23.3 97.321-62.81 127.845l-3.234-16.711c32.49-27.911 51.044-68.187 51.044-111.135 0-80.779-65.72-146.499-146.5-146.499s-146.5 65.72-146.5 146.5c0 42.91 18.566 83.218 51.046 111.127l-3.236 16.717c-39.512-30.524-62.81-77.567-62.81-127.844zm46.5 228c0-1.379 1.122-2.5 2.5-2.5h156.219c4.142 0 7.5-3.357 7.5-7.5s-3.358-7.5-7.5-7.5h-143.128l5.806-30h187.206l5.806 30h-20.691c-4.142 0-7.5 3.357-7.5 7.5s3.358 7.5 7.5 7.5h33.782c1.378 0 2.5 1.121 2.5 2.5v27.5h-230z"/><path d="m119.5 414.5c0-16.542-13.458-30-30-30s-30 13.458-30 30 13.458 30 30 30 30-13.458 30-30zm-45 0c0-8.271 6.729-15 15-15s15 6.729 15 15-6.729 15-15 15-15-6.729-15-15z"/><path d="m392.5 414.5c0 16.542 13.458 30 30 30s30-13.458 30-30-13.458-30-30-30-30 13.458-30 30zm30-15c8.271 0 15 6.729 15 15s-6.729 15-15 15-15-6.729-15-15 6.729-15 15-15z"/></g></svg>